<svg width="22" height="24" viewBox="0 0 22 24" fill="none" xmlns="http://www.w3.org/2000/svg">
<path d="M5.75 5.25C5.75 2.39062 8.09375 0 11 0C13.8594 0 16.25 2.39062 16.25 5.25V7.5H19.25C20.4688 7.5 21.5 8.53125 21.5 9.75V19.5C21.5 21.9844 19.4844 24 17 24H5C2.46875 24 0.5 21.9844 0.5 19.5V9.75C0.5 8.53125 1.48438 7.5 2.75 7.5H5.75V5.25ZM8 7.5H14V5.25C14 3.60938 12.6406 2.25 11 2.25C9.3125 2.25 8 3.60938 8 5.25V7.5ZM6.875 12C7.48438 12 8 11.5312 8 10.875C8 10.2656 7.48438 9.75 6.875 9.75C6.21875 9.75 5.75 10.2656 5.75 10.875C5.75 11.5312 6.21875 12 6.875 12ZM15.125 9.75C14.4688 9.75 14 10.2656 14 10.875C14 11.5312 14.4688 12 15.125 12C15.7344 12 16.25 11.5312 16.25 10.875C16.25 10.2656 15.7344 9.75 15.125 9.75Z" fill="white"/>
</svg>
