<svg width="223" height="72" viewBox="0 0 223 72" fill="none" xmlns="http://www.w3.org/2000/svg">
<rect width="223" height="72" fill="#1E2832"/>
<path d="M35.75 29.25C35.75 26.3906 38.0938 24 41 24C43.8594 24 46.25 26.3906 46.25 29.25V31.5H49.25C50.4688 31.5 51.5 32.5312 51.5 33.75V43.5C51.5 45.9844 49.4844 48 47 48H35C32.4688 48 30.5 45.9844 30.5 43.5V33.75C30.5 32.5312 31.4844 31.5 32.75 31.5H35.75V29.25ZM38 31.5H44V29.25C44 27.6094 42.6406 26.25 41 26.25C39.3125 26.25 38 27.6094 38 29.25V31.5ZM36.875 36C37.4844 36 38 35.5312 38 34.875C38 34.2656 37.4844 33.75 36.875 33.75C36.2188 33.75 35.75 34.2656 35.75 34.875C35.75 35.5312 36.2188 36 36.875 36ZM45.125 33.75C44.4688 33.75 44 34.2656 44 34.875C44 35.5312 44.4688 36 45.125 36C45.7344 36 46.25 35.5312 46.25 34.875C46.25 34.2656 45.7344 33.75 45.125 33.75Z" fill="white"/>
<path d="M77.3813 40.7891C77.3813 40.3076 77.3058 39.8828 77.1548 39.5146C77.0132 39.137 76.7583 38.7972 76.3901 38.4951C76.0314 38.193 75.5311 37.9051 74.8892 37.6313C74.2567 37.3576 73.4543 37.0791 72.4819 36.7959C71.4624 36.4938 70.542 36.1587 69.7207 35.7905C68.8994 35.4129 68.1961 34.9834 67.6108 34.502C67.0256 34.0205 66.5771 33.4683 66.2656 32.8452C65.9541 32.2222 65.7983 31.5094 65.7983 30.707C65.7983 29.9046 65.9635 29.1636 66.2939 28.4839C66.6243 27.8042 67.0964 27.2142 67.71 26.7139C68.333 26.2041 69.0741 25.8076 69.9331 25.5244C70.7922 25.2412 71.7503 25.0996 72.8076 25.0996C74.3558 25.0996 75.668 25.397 76.7441 25.9917C77.8298 26.577 78.6558 27.3464 79.2222 28.2998C79.7886 29.2438 80.0718 30.2539 80.0718 31.3301H77.353C77.353 30.556 77.1878 29.8716 76.8574 29.2769C76.527 28.6727 76.0267 28.2007 75.3564 27.8608C74.6862 27.5116 73.8366 27.3369 72.8076 27.3369C71.8353 27.3369 71.0329 27.4832 70.4004 27.7759C69.7679 28.0685 69.2959 28.465 68.9844 28.9653C68.6823 29.4657 68.5312 30.0368 68.5312 30.6787C68.5312 31.113 68.6209 31.5094 68.8003 31.8682C68.9891 32.2174 69.277 32.5431 69.6641 32.8452C70.0605 33.1473 70.5609 33.4258 71.165 33.6807C71.7786 33.9355 72.5103 34.181 73.3599 34.417C74.5304 34.7474 75.5405 35.1156 76.3901 35.5215C77.2397 35.9274 77.9383 36.3853 78.4858 36.895C79.0428 37.3953 79.4535 37.9665 79.7178 38.6084C79.9915 39.2409 80.1284 39.9583 80.1284 40.7607C80.1284 41.6009 79.9585 42.3608 79.6187 43.0405C79.2788 43.7202 78.7926 44.3008 78.1602 44.7822C77.5277 45.2637 76.7677 45.6366 75.8804 45.9009C75.0024 46.1558 74.0207 46.2832 72.9351 46.2832C71.9816 46.2832 71.0423 46.151 70.1172 45.8867C69.2015 45.6224 68.366 45.2259 67.6108 44.6973C66.8651 44.1686 66.2656 43.5173 65.8125 42.7432C65.3688 41.9596 65.147 41.0534 65.147 40.0244H67.8657C67.8657 40.7324 68.0026 41.3413 68.2764 41.8511C68.5501 42.3514 68.923 42.7668 69.395 43.0972C69.8765 43.4276 70.4193 43.673 71.0234 43.8335C71.637 43.9845 72.2743 44.0601 72.9351 44.0601C73.8885 44.0601 74.6956 43.9279 75.3564 43.6636C76.0173 43.3993 76.5176 43.0216 76.8574 42.5308C77.2067 42.0399 77.3813 41.4593 77.3813 40.7891ZM85.835 24.25V46H83.2153V24.25H85.835ZM85.2119 37.7588L84.1216 37.7163C84.131 36.6685 84.2868 35.7008 84.5889 34.8135C84.891 33.9167 85.3158 33.1379 85.8633 32.4771C86.4108 31.8162 87.0622 31.3065 87.8174 30.9478C88.582 30.5796 89.4269 30.3955 90.3521 30.3955C91.1073 30.3955 91.7869 30.4993 92.3911 30.707C92.9953 30.9053 93.5098 31.2262 93.9346 31.6699C94.3688 32.1136 94.6992 32.6895 94.9258 33.3975C95.1523 34.096 95.2656 34.9504 95.2656 35.9604V46H92.6318V35.9321C92.6318 35.1297 92.5138 34.4878 92.2778 34.0063C92.0418 33.5155 91.6973 33.1615 91.2441 32.9443C90.791 32.7178 90.234 32.6045 89.5732 32.6045C88.9219 32.6045 88.3271 32.7414 87.7891 33.0151C87.2604 33.2889 86.8026 33.6665 86.4155 34.1479C86.0379 34.6294 85.7406 35.1816 85.5234 35.8047C85.3158 36.4183 85.2119 37.0697 85.2119 37.7588ZM98.4941 38.5093V38.1836C98.4941 37.0791 98.6546 36.0549 98.9756 35.1108C99.2965 34.1574 99.7591 33.3314 100.363 32.6328C100.967 31.9248 101.699 31.3773 102.558 30.9902C103.417 30.5938 104.38 30.3955 105.447 30.3955C106.523 30.3955 107.491 30.5938 108.35 30.9902C109.218 31.3773 109.954 31.9248 110.559 32.6328C111.172 33.3314 111.639 34.1574 111.96 35.1108C112.281 36.0549 112.442 37.0791 112.442 38.1836V38.5093C112.442 39.6138 112.281 40.638 111.96 41.582C111.639 42.526 111.172 43.3521 110.559 44.0601C109.954 44.7586 109.223 45.3062 108.364 45.7026C107.514 46.0897 106.551 46.2832 105.475 46.2832C104.399 46.2832 103.431 46.0897 102.572 45.7026C101.713 45.3062 100.977 44.7586 100.363 44.0601C99.7591 43.3521 99.2965 42.526 98.9756 41.582C98.6546 40.638 98.4941 39.6138 98.4941 38.5093ZM101.114 38.1836V38.5093C101.114 39.2739 101.203 39.9961 101.383 40.6758C101.562 41.346 101.831 41.9408 102.19 42.46C102.558 42.9792 103.016 43.3898 103.563 43.6919C104.111 43.9845 104.748 44.1309 105.475 44.1309C106.193 44.1309 106.82 43.9845 107.358 43.6919C107.906 43.3898 108.359 42.9792 108.718 42.46C109.076 41.9408 109.346 41.346 109.525 40.6758C109.714 39.9961 109.808 39.2739 109.808 38.5093V38.1836C109.808 37.4284 109.714 36.7157 109.525 36.0454C109.346 35.3657 109.072 34.7663 108.704 34.2471C108.345 33.7184 107.892 33.3031 107.344 33.001C106.806 32.6989 106.174 32.5479 105.447 32.5479C104.729 32.5479 104.097 32.6989 103.549 33.001C103.011 33.3031 102.558 33.7184 102.19 34.2471C101.831 34.7663 101.562 35.3657 101.383 36.0454C101.203 36.7157 101.114 37.4284 101.114 38.1836ZM118.347 33.624V51.8906H115.713V30.6787H118.12L118.347 33.624ZM128.669 38.2119V38.5093C128.669 39.6232 128.537 40.6569 128.273 41.6104C128.009 42.5544 127.622 43.3757 127.112 44.0742C126.611 44.7728 125.993 45.3156 125.257 45.7026C124.521 46.0897 123.676 46.2832 122.722 46.2832C121.75 46.2832 120.891 46.1227 120.145 45.8018C119.399 45.4808 118.767 45.0135 118.248 44.3999C117.728 43.7863 117.313 43.05 117.001 42.1909C116.699 41.3319 116.492 40.3643 116.378 39.2881V37.7021C116.492 36.5693 116.704 35.5545 117.016 34.6577C117.327 33.7609 117.738 32.9963 118.248 32.3638C118.767 31.7218 119.395 31.2357 120.131 30.9053C120.867 30.5654 121.717 30.3955 122.68 30.3955C123.643 30.3955 124.497 30.5843 125.243 30.9619C125.988 31.3301 126.616 31.8587 127.126 32.5479C127.636 33.237 128.018 34.063 128.273 35.0259C128.537 35.9793 128.669 37.0413 128.669 38.2119ZM126.036 38.5093V38.2119C126.036 37.4473 125.955 36.7298 125.795 36.0596C125.634 35.3799 125.384 34.7852 125.044 34.2754C124.714 33.7562 124.289 33.3503 123.77 33.0576C123.251 32.7555 122.632 32.6045 121.915 32.6045C121.254 32.6045 120.678 32.7178 120.188 32.9443C119.706 33.1709 119.295 33.4777 118.956 33.8647C118.616 34.2424 118.337 34.6766 118.12 35.1675C117.912 35.6489 117.757 36.1493 117.653 36.6685V40.3359C117.842 40.9967 118.106 41.6198 118.446 42.2051C118.786 42.7809 119.239 43.2482 119.805 43.6069C120.372 43.9562 121.084 44.1309 121.943 44.1309C122.651 44.1309 123.26 43.9845 123.77 43.6919C124.289 43.3898 124.714 42.9792 125.044 42.46C125.384 41.9408 125.634 41.346 125.795 40.6758C125.955 39.9961 126.036 39.2739 126.036 38.5093ZM155.46 25.3828V46H152.713L142.334 30.0981V46H139.601V25.3828H142.334L152.756 41.3271V25.3828H155.46ZM159.213 38.5093V38.1836C159.213 37.0791 159.373 36.0549 159.694 35.1108C160.015 34.1574 160.478 33.3314 161.082 32.6328C161.686 31.9248 162.418 31.3773 163.277 30.9902C164.136 30.5938 165.099 30.3955 166.166 30.3955C167.242 30.3955 168.209 30.5938 169.068 30.9902C169.937 31.3773 170.673 31.9248 171.277 32.6328C171.891 33.3314 172.358 34.1574 172.679 35.1108C173 36.0549 173.161 37.0791 173.161 38.1836V38.5093C173.161 39.6138 173 40.638 172.679 41.582C172.358 42.526 171.891 43.3521 171.277 44.0601C170.673 44.7586 169.942 45.3062 169.083 45.7026C168.233 46.0897 167.27 46.2832 166.194 46.2832C165.118 46.2832 164.15 46.0897 163.291 45.7026C162.432 45.3062 161.696 44.7586 161.082 44.0601C160.478 43.3521 160.015 42.526 159.694 41.582C159.373 40.638 159.213 39.6138 159.213 38.5093ZM161.833 38.1836V38.5093C161.833 39.2739 161.922 39.9961 162.102 40.6758C162.281 41.346 162.55 41.9408 162.909 42.46C163.277 42.9792 163.735 43.3898 164.282 43.6919C164.83 43.9845 165.467 44.1309 166.194 44.1309C166.911 44.1309 167.539 43.9845 168.077 43.6919C168.625 43.3898 169.078 42.9792 169.437 42.46C169.795 41.9408 170.064 41.346 170.244 40.6758C170.432 39.9961 170.527 39.2739 170.527 38.5093V38.1836C170.527 37.4284 170.432 36.7157 170.244 36.0454C170.064 35.3657 169.791 34.7663 169.422 34.2471C169.064 33.7184 168.611 33.3031 168.063 33.001C167.525 32.6989 166.892 32.5479 166.166 32.5479C165.448 32.5479 164.816 32.6989 164.268 33.001C163.73 33.3031 163.277 33.7184 162.909 34.2471C162.55 34.7663 162.281 35.3657 162.102 36.0454C161.922 36.7157 161.833 37.4284 161.833 38.1836ZM180.326 43.2812L184.262 30.6787H185.99L185.65 33.1851L181.643 46H179.958L180.326 43.2812ZM177.678 30.6787L181.034 43.4229L181.274 46H179.504L175.058 30.6787H177.678ZM189.756 43.3237L192.957 30.6787H195.562L191.116 46H189.36L189.756 43.3237ZM186.372 30.6787L190.224 43.0688L190.663 46H188.992L184.871 33.1567L184.531 30.6787H186.372Z" fill="white"/>
</svg>
